<svg xmlns="http://www.w3.org/2000/svg" viewBox="0 0 216 199.79"><defs><style>.cls-1{fill:#fff;}</style></defs><title>Launch Logo White</title><g id="Layer_2" data-name="Layer 2"><g id="Layer_1-2" data-name="Layer 1"><path id="Logo_Orange" data-name="Logo Orange" class="cls-1" d="M0,0V199.79H216V0ZM176.21,140.2H147.53v-4.52c0-14,.07-27.92-.11-41.88-.1-7.72-5.1-12.15-12.88-12-6.37.16-11,4.33-11.55,10.56-.38,4.62-.67,9.25-.78,13.88-.51,20.91-14.39,35.25-36.11,36.7-14.7,1-28.19-1.81-38.31-13.37-4.73-5.4-7.68-11.76-7.87-18.61-.46-17-.15-34-.15-51.49H68.56V73c0,10.62-.06,21.24,0,31.85.09,8.41,4.54,13,12.26,13.08s12-4.5,12.37-13c.27-6.08.13-12.25,1.25-18.2,3.32-17.65,16.86-28.9,35.73-30,14.2-.83,27.29,1.78,37.38,12.56,4.91,5.24,8.2,11.56,8.42,18.37C176.59,105.1,176.21,122.53,176.21,140.2Z"/></g></g></svg>