<svg xmlns="http://www.w3.org/2000/svg" viewBox="0 0 432 111.88"><defs><style>.cls-1{fill:#fff;}</style></defs><title>Launch Wordmark White</title><g id="Layer_2" data-name="Layer 2"><g id="Layer_1-2" data-name="Layer 1"><g id="Launch_Wordmark" data-name="Launch Wordmark"><path class="cls-1" d="M123.42,28.78h10.07v4.45c0,13.73-.25,27.48.15,41.2a40.56,40.56,0,0,0,3,14.31c4.19,10,15.6,15.14,27.16,13,11.38-2.15,19.28-10.88,19.95-22.44.45-7.8.06-15.67.88-23.41,1.77-16.7,15.13-28.41,32-29,11-.37,21,1.89,28.93,10.08,5.37,5.53,8,12.34,9,19.84a59.94,59.94,0,0,1,.28,7.82c0,15,0,29.93,0,45.19H244.78v-4.31c0-13.74.24-27.48-.15-41.21a41,41,0,0,0-3-14.3c-4.2-10-15.6-15.14-27.16-13-11.38,2.15-19.28,10.88-19.95,22.45-.46,7.79-.06,15.66-.88,23.41-1.77,16.7-15.13,28.4-32,29-11,.36-21-1.89-28.93-10.08-5.37-5.54-8-12.35-9-19.85a59.88,59.88,0,0,1-.28-7.82C123.41,59.14,123.42,44.18,123.42,28.78Z"/><path class="cls-1" d="M107.93,110H99.67c-.41-4.5-.8-8.83-1.27-14-9,10.62-20,16-33.5,15.93S40,106.9,31.73,96C18.18,78,20.64,51.55,36.68,37.37,52,23.89,80.21,21.69,98.42,42.83c.53-4.88,1-9.4,1.54-14h8ZM33.38,69.45C33.4,88.22,47.1,102,65.78,102s32-13.86,32-32.88C97.67,50.8,83.94,37,65.81,36.9,47.33,36.83,33.37,50.84,33.38,69.45Z"/><path class="cls-1" d="M371.36,110H361.23V0H371.3V41.72c5.34-6.58,10.88-10.82,17.85-12.92,20.44-6.17,41.52,3.84,42.51,28.84.68,17.26.13,34.57.13,52.22h-10v-4.4c0-14,.08-28-.06-42a42.73,42.73,0,0,0-1.26-10.14c-2.22-8.7-7.69-14.57-16.64-16.21-9.61-1.75-18.27.57-25,8a27.66,27.66,0,0,0-7.4,19.06l0,41.19Z"/><path class="cls-1" d="M348.33,54.81h-9.44c-5.26-10.08-13.31-16.09-24.75-17.48-17.74-2.15-32.9,9.29-35.58,27s8.36,34,25.91,37.06c12.77,2.25,23.87-1.64,31.14-12.73,2.86-4.37,5.83-5.86,10.55-5.14.8.12,1.62.1,2.44.15-1.88,16.35-21.91,29.43-42.76,28.07C284.58,110.4,268,92,267.81,69.55c-.19-23,16.69-41.17,39.86-42.46C330.1,25.83,345.93,41.09,348.33,54.81Z"/><path class="cls-1" d="M9.93,110H0V0H9.93Z"/></g></g></g></svg>